<?xml version="1.0" encoding="iso-8859-1"?>
<!-- Uploaded to: SVG Repo, www.svgrepo.com, Generator: SVG Repo Mixer Tools -->
<svg height="800px" width="800px" version="1.1" id="Layer_1" xmlns="http://www.w3.org/2000/svg" xmlns:xlink="http://www.w3.org/1999/xlink" 
	 viewBox="0 0 445.983 445.983" xml:space="preserve">
<ellipse style="fill:#A1AFB2;" cx="223" cy="433.877" rx="77.95" ry="12.107"/>
<path style="fill:#BA6831;" d="M319.256,85.843c0,36.628-43.11,66.339-96.264,66.339s-96.264-29.704-96.264-66.339
	C126.728,49.199,169.838,0,222.992,0S319.256,49.199,319.256,85.843z"/>
<path style="fill:#994F1D;" d="M319.256,85.843c0,36.628-43.11,66.339-96.264,66.339s-96.264-29.704-96.264-66.339
	c0-36.643,43.11-76.753,96.264-76.753S319.256,49.199,319.256,85.843z"/>
<path style="fill:#232728;" d="M300.359,364.292c0,56.076-34.643,65.434-77.367,65.434c-42.709,0-77.367-9.358-77.367-65.434
	s34.658-101.541,77.367-101.541C265.716,262.751,300.359,308.208,300.359,364.292z"/>
<path style="fill:#F9C1AC;" d="M411.361,167.211c0,69.845-84.354,104.952-188.369,104.952S34.623,237.056,34.623,167.211
	S118.977,40.747,222.992,40.747S411.361,97.367,411.361,167.211z"/>
<path style="fill:#F2B09C;" d="M411.361,167.211c0,69.845-84.354,104.952-188.369,104.952S34.623,237.056,34.623,167.211"/>
<circle style="fill:#113E49;" cx="155.022" cy="157.869" r="12.784"/>
<path d="M167.806,157.846c0,7.073-5.727,12.784-12.784,12.784s-12.784-5.711-12.784-12.784"/>
<path style="fill:#FFD3C5;" d="M180.252,184.501c-0.693,0-1.386-0.26-1.922-0.788c-6.231-6.246-14.525-9.681-23.324-9.681h-0.016
	c-8.783,0-17.077,3.434-23.276,9.665c-1.048,1.048-2.757,1.079-3.797,0.016c-1.063-1.032-1.079-2.741-0.032-3.797
	c7.231-7.263,16.864-11.264,27.104-11.264h0.016c10.264,0,19.889,3.986,27.168,11.248c1.032,1.048,1.032,2.788,0,3.812
	C181.638,184.241,180.945,184.501,180.252,184.501z"/>
<circle style="fill:#113E49;" cx="290.97" cy="157.869" r="12.776"/>
<path d="M278.193,157.846c0,7.073,5.711,12.784,12.768,12.784c7.058,0,12.784-5.711,12.784-12.784"/>
<path style="fill:#FFD3C5;" d="M265.748,184.501c0.677,0,1.371-0.26,1.906-0.788c6.246-6.246,14.525-9.681,23.324-9.681h0.032
	c8.767,0,17.061,3.434,23.276,9.665c1.048,1.048,2.757,1.079,3.797,0.016c1.063-1.032,1.079-2.741,0.016-3.797
	c-7.215-7.263-16.864-11.264-27.089-11.264h-0.032c-10.264,0-19.873,3.986-27.168,11.248c-1.016,1.048-1.016,2.788,0,3.812
	C264.346,184.241,265.039,184.501,265.748,184.501z"/>
<path style="fill:#CC753A;" d="M170.24,71.964l13.186,19.527h190.173c-34.359-30.759-88.946-56.604-150.607-56.604
	c-61.645,0-116.248,25.844-150.599,56.604h84.693L170.24,71.964z"/>
<path style="fill:#BA6831;" d="M170.24,71.964l13.186,19.527h190.173c-34.359-30.759-88.946-45.97-150.607-45.97
	c-61.645,0-116.248,15.218-150.599,45.97h84.693L170.24,71.964z"/>
<ellipse style="fill:#A54A53;" cx="222.992" cy="196.545" rx="8.121" ry="10.736"/>
<g>
	<path style="fill:#232728;" d="M203.748,404.259c-0.488-7.893-7.901-24.261-15.809-23.788l-43.047,13.123
		c-7.877,0.48-13.863,7.278-13.383,15.155l0,0c0.496,7.877,7.294,13.863,15.147,13.367l54.745,7.034
		C209.286,428.654,204.245,412.168,203.748,404.259L203.748,404.259z"/>
	<path style="fill:#232728;" d="M242.235,404.259c0.488-7.893,7.893-24.261,15.801-23.788l43.047,13.123
		c7.877,0.48,13.871,7.278,13.383,15.155l0,0c-0.496,7.877-7.294,13.863-15.147,13.367l-54.737,7.034
		C236.698,428.654,241.731,412.168,242.235,404.259L242.235,404.259z"/>
</g>
<g>
	<path style="fill:#F9C1AC;" d="M236.808,437.287c-6.002,2.001-33.335,5.711-35.336-0.26c-2.001-6.018,22.126-19.448,28.121-21.433
		c5.971-2.001,12.461,1.245,14.462,7.231C246.04,428.812,242.794,435.287,236.808,437.287z"/>
	<path style="fill:#F9C1AC;" d="M209.176,437.287c6.002,2.001,33.335,5.711,35.336-0.26c2.001-6.018-22.126-19.448-28.121-21.433
		c-5.971-2.001-12.461,1.245-14.462,7.231C199.944,428.812,203.189,435.287,209.176,437.287z"/>
</g>
<path style="fill:#F2B09C;" d="M181.992,303.262c-6.743,5.75-16.857,4.97-22.662-1.757l-31.957-37.337
	c-5.766-6.727-4.994-16.849,1.764-22.646l0,0c6.703-5.727,16.841-4.939,22.591,1.772l31.996,37.337
	C189.483,287.35,188.711,297.456,181.992,303.262L181.992,303.262z"/>
<path style="fill:#F9C1AC;" d="M123.325,243.98c3.946-7.357,32.414-46.119,39.794-42.197c7.333,3.938-9.271,49.105-13.186,56.462
	c-3.954,7.357-13.084,10.106-20.441,6.152C122.136,260.458,119.387,251.321,123.325,243.98z"/>
<path style="fill:#F2B09C;" d="M263.983,303.262c6.743,5.75,16.857,4.97,22.662-1.757l31.965-37.337
	c5.774-6.727,4.986-16.849-1.772-22.646l0,0c-6.703-5.727-16.833-4.939-22.583,1.772l-31.996,37.337
	C256.492,287.35,257.272,297.456,263.983,303.262L263.983,303.262z"/>
<path style="fill:#F9C1AC;" d="M322.651,243.98c-3.938-7.357-32.414-46.119-39.786-42.197c-7.341,3.938,9.263,49.105,13.186,56.462
	c3.954,7.357,13.076,10.106,20.433,6.152C323.84,260.458,326.589,251.321,322.651,243.98z"/>
</svg>